# xmcd CD database file
#
# Track frame offsets:
#	150
#	26945
#	50430
#	79105
#	106245
#	123337
#	138010
#
# Disc length: 2274 seconds
#
# Revision: 2
# Processed by: cddbd v1.5.2PL0 Copyright (c) Steve Scherf et al.
# Submitted via: CDex 1.51
#
DISCID=5408e007
DTITLE=Gerald Wilson - Orchestra Portraits
DYEAR=1964
DGENRE=Jazz
TTITLE0=So What
TTITLE1='Round Midnight
TTITLE2=Paco
TTITLE3=Ravi
TTITLE4=Aram
TTITLE5=Eric
TTITLE6=Caprichos
EXTD=YEAR: 1964
EXTT0=
EXTT1=
EXTT2=
EXTT3=
EXTT4=
EXTT5=
EXTT6=
PLAYORDER=
